<?xml version="1.0" encoding="UTF-8" standalone="no"?>
<!-- Created with Inkscape (http://www.inkscape.org/) -->

<svg
   xmlns:dc="http://purl.org/dc/elements/1.1/"
   xmlns:cc="http://creativecommons.org/ns#"
   xmlns:rdf="http://www.w3.org/1999/02/22-rdf-syntax-ns#"
   xmlns:svg="http://www.w3.org/2000/svg"
   xmlns="http://www.w3.org/2000/svg"
   version="1.1"
   width="92"
   height="92.000099"
   viewBox="0 0 92 92.000098"
   id="Layer_1"
   xml:space="preserve"><metadata
     id="metadata173"><rdf:RDF><cc:Work
         rdf:about=""><dc:format>image/svg+xml</dc:format><dc:type
           rdf:resource="http://purl.org/dc/dcmitype/StillImage" /><dc:title></dc:title></cc:Work></rdf:RDF></metadata><defs
     id="defs171" /><g
     transform="translate(-149,-227.00001)"
     id="g107"><path
       d="m 207.707,264.169 c 0,1.609 -1.302,2.912 -2.91,2.912 -1.608,0 -2.91,-1.303 -2.91,-2.912 0,-1.605 1.302,-2.908 2.91,-2.908 1.608,0 2.91,1.302 2.91,2.908 z"
       id="path109"
       style="fill:none;stroke:#000000;stroke-width:2;stroke-miterlimit:10" /><polyline
       stroke-miterlimit="10"
       points="215.66,264.712    222.079,268.565 214.034,273.179  "
       id="polyline111"
       style="fill:none;stroke:#000000;stroke-width:2;stroke-linecap:round;stroke-miterlimit:10" /><g
       id="g113"><g
         id="g115"><path
           d="m 195,318.001 c 24.854,0 45,-20.145 45,-45.002 C 240,248.148 219.854,228 195,228 c -24.855,0 -45,20.147 -45,44.999 0,7.953 2.312,18.233 8.667,25.995 4.848,5.908 15.083,9.917 25.167,5.25 6.155,-2.849 12.923,-9.339 15.917,-12.503 3.741,-3.955 10.948,-12.77 13.087,-16.424 7.185,-12.273 -0.257,-23.352 -14.627,-22.325 -7.94,0.567 -12.831,7.313 -16.68,16.422 -3.109,7.359 -3.878,16.812 -0.723,20.661"
           id="path117"
           style="fill:none;stroke:#000000;stroke-width:2;stroke-linecap:round;stroke-miterlimit:10" /><g
           id="g119"><g
             id="g121"><circle
               cx="180.701"
               cy="289.923"
               r="3.0079999"
               id="circle123"
               style="fill:#ffffff" /><path
               d="m 178.882,292.805 c -1.589,-1.002 -2.066,-3.111 -1.063,-4.7 1.002,-1.589 3.111,-2.066 4.701,-1.064 1.589,1.003 2.066,3.112 1.063,4.701 -1.003,1.589 -3.111,2.066 -4.701,1.063 -1.589,-1.003 1.59,1.003 0,0 z m 3.21,-5.088 c -1.216,-0.768 -2.83,-0.402 -3.597,0.814 -0.768,1.216 -0.403,2.83 0.814,3.597 1.216,0.768 2.83,0.402 3.597,-0.814 0.768,-1.216 0.403,-2.829 -0.814,-3.597 -1.217,-0.768 1.217,0.768 0,0 z"
               id="path125" /></g></g></g></g><path
       d="m 183.848,273.94 c 0,0 -7.844,0.533 -11.19,-2.15 -1.387,-1.112 -1.408,-2.963 -1.123,-3.996 0.575,-2.083 4.444,-2.963 4.444,-2.963 0,0 -4.574,-3.471 -3.21,-6.624 0.917,-2.12 2.964,-2.918 4.728,-2.906 4.31,0.029 11.14,6.618 12.1,7.938"
       id="path127"
       style="fill:#ffffff;stroke:#000000;stroke-width:2;stroke-linecap:round;stroke-miterlimit:10" /><path
       d="m 183.707,290.169 c 0,1.609 -1.302,2.912 -2.91,2.912 -1.608,0 -2.91,-1.303 -2.91,-2.912 0,-1.605 1.302,-2.908 2.91,-2.908 1.608,0 2.91,1.302 2.91,2.908 z"
       id="path129"
       style="fill:none;stroke:#000000;stroke-width:2;stroke-miterlimit:10" /></g><g
     transform="translate(-149,-227.00001)"
     id="g137" /><g
     transform="translate(-149,-227.00001)"
     id="g139" /><g
     transform="translate(-149,-227.00001)"
     id="g141" /><g
     transform="translate(-149,-227.00001)"
     id="g143" /><g
     transform="translate(-149,-227.00001)"
     id="g145" /><g
     transform="translate(-149,-227.00001)"
     id="g147" /><g
     transform="translate(-149,-227.00001)"
     id="g149" /><g
     transform="translate(-149,-227.00001)"
     id="g151" /><g
     transform="translate(-149,-227.00001)"
     id="g153" /><g
     transform="translate(-149,-227.00001)"
     id="g155" /><g
     transform="translate(-149,-227.00001)"
     id="g157" /><g
     transform="translate(-149,-227.00001)"
     id="g159" /><g
     transform="translate(-149,-227.00001)"
     id="g161" /><g
     transform="translate(-149,-227.00001)"
     id="g163" /><g
     transform="translate(-149,-227.00001)"
     id="g165" /><g
     transform="translate(-149,-227.00001)"
     id="g167" /></svg>