<?xml version="1.0" encoding="utf-8"?>
<!-- Generator: Adobe Illustrator 16.0.1, SVG Export Plug-In . SVG Version: 6.00 Build 0)  -->
<!DOCTYPE svg PUBLIC "-//W3C//DTD SVG 1.1//EN" "http://www.w3.org/Graphics/SVG/1.1/DTD/svg11.dtd">
<svg version="1.1" id="Layer_1" xmlns="http://www.w3.org/2000/svg" xmlns:xlink="http://www.w3.org/1999/xlink" x="0px" y="0px"
	 width="201px" height="51.333px" viewBox="0 0 201 51.333" enable-background="new 0 0 201 51.333" xml:space="preserve">
<g>
	<path fill="#31A6E7" d="M184.486,22.626c-1.568,0-2.842-1.276-2.842-2.843c0-1.566,1.273-2.842,2.842-2.842
		c1.566,0,2.842,1.275,2.842,2.842C187.328,21.351,186.053,22.626,184.486,22.626z M184.486,18.424c-0.75,0-1.359,0.61-1.359,1.359
		s0.609,1.361,1.359,1.361s1.359-0.611,1.359-1.361S185.236,18.424,184.486,18.424z"/>
	<path fill="#31A6E7" d="M62.526,37.333c-1.638,0-2.971,1.333-2.971,2.971c0,0.782,0.31,1.489,0.806,2.021
		c-2.743,3.496-7.636,6.154-13.624,4.949c-0.328-0.066-0.656-0.146-0.982-0.24c4.678-1.648,14.32-6.213,14.948-15.939
		c0.312-4.848-1.944-7.645-3.892-9.138c-2.188-1.676-4.867-2.417-6.644-2.552c-3.629-0.277-7.558,1.084-10.514,3.635
		c-2.036,1.757-4.538,4.885-4.89,9.806c-0.449,6.294,2.539,11.092,6.587,13.762c-2.159,0.279-5.354,0.299-8.138-1.25
		c-2.447-1.363-4.164-3.717-5.111-7.004c0.953-3.272,0.878-7.041-0.309-11.013c-2.086-6.978-7.716-10.969-14.358-10.172
		c-3.734,0.45-6.389,2.339-8.141,4.183c-0.4-0.201-0.846-0.325-1.323-0.325C2.333,21.026,1,22.359,1,23.997
		c0,1.638,1.333,2.971,2.971,2.971s2.971-1.333,2.971-2.971c0-0.627-0.197-1.207-0.53-1.686l0,0c1.638-1.72,3.973-3.284,7.2-3.672
		c5.881-0.706,10.892,2.874,12.76,9.125c0.814,2.727,1.083,5.31,0.831,7.667c-1.478-3.65-4.199-6.197-7.832-7.27
		c-4.536-1.34-9.799-0.154-13.092,2.953c-2.151,2.029-3.321,4.489-3.383,7.114c-0.065,2.748,1.123,5.662,3.18,7.795
		c3.748,3.885,10.905,4.008,16.294,0.275c2.19-1.518,3.841-3.484,4.915-5.775c1.13,2.773,2.875,4.829,5.208,6.129
		c4.162,2.318,8.972,1.555,10.924,1.094c0.984,0.444,2.003,0.773,3.03,0.98c1.104,0.221,2.173,0.307,3.205,0.307
		c5.219,0,9.518-2.939,11.977-5.951c0.135,0.059,0.411,0.174,0.899,0.174c1.638,0,2.971-1.323,2.971-2.961
		C65.497,38.656,64.164,37.333,62.526,37.333z M3.971,25.485c-0.821,0-1.488-0.667-1.488-1.488s0.667-1.488,1.488-1.488
		s1.488,0.667,1.488,1.488S4.792,25.485,3.971,25.485z M21.524,45.08c-4.807,3.329-11.125,3.291-14.383-0.086
		c-1.787-1.854-2.82-4.369-2.765-6.729c0.054-2.253,1.036-4.296,2.919-6.071c2.096-1.977,5.208-3.083,8.284-3.083
		c1.147,0,2.289,0.153,3.371,0.473c3.797,1.122,6.467,4.106,7.519,8.403c0.033,0.137,0.068,0.271,0.104,0.405
		C25.685,41.09,23.987,43.373,21.524,45.08z M43.564,46.177c-4.323-2.157-7.778-6.836-7.322-13.226
		c0.315-4.414,2.555-7.215,4.379-8.789c2.44-2.105,5.602-3.311,8.607-3.311c0.277,0,0.553,0.01,0.827,0.031
		c0.098,0.008,9.766,0.848,9.168,10.116c-0.642,9.947-11.908,14.062-15.364,15.094C43.852,46.094,43.749,46.127,43.564,46.177z
		 M62.526,41.792c-0.82,0-1.488-0.667-1.488-1.488s0.668-1.488,1.488-1.488c0.821,0,1.488,0.667,1.488,1.488
		S63.347,41.792,62.526,41.792z"/>
	<path fill="#31A6E7" d="M98.104,38.074c-1.638,0-2.971,1.332-2.971,2.971c0,0.744,0.285,1.418,0.74,1.94
		c-1.876,2.146-4.198,3.566-6.835,4.156c-4.342,0.971-8.445-0.417-10.84-2.04c-1.508-1.021-3.182-2.825-4.33-5.145
		c4.491,1.637,9.71,1.22,15.043-1.26c4.906-2.281,7.529-6.081,7.213-10.424c-0.284-3.885-3-7.447-6.436-8.47
		c-6.076-1.809-14.339,0.921-17.593,8.623c-1.239,2.929-1.248,5.881-0.7,8.571C65.993,33.376,63,26.144,63,17.086V7h-0.467
		c1.289,0,2.253-1.556,2.253-2.944c0-1.637-1.331-3.006-2.969-3.006s-2.97,1.393-2.97,3.031C58.846,5.454,59.784,7,61.051,7H61
		v10.086c0,9.73,3.608,17.51,9.62,21.344c0.359,0.229,0.873,0.442,1.245,0.641c1.101,3.074,3.14,5.66,5.497,7.259
		c2.043,1.384,5.214,2.614,8.756,2.614c1.054,0,2.144-0.108,3.243-0.354c3.008-0.673,5.637-2.305,7.737-4.761
		c0.316,0.114,0.652,0.188,1.007,0.188c1.638,0,2.971-1.332,2.971-2.971S99.742,38.074,98.104,38.074z M60.33,3.984
		c0-0.821,0.667-1.488,1.488-1.488c0.821,0,1.488,0.667,1.488,1.488s-0.667,1.488-1.488,1.488C60.997,5.473,60.33,4.805,60.33,3.984
		z M73.528,29.002c2.931-6.935,10.322-9.4,15.771-7.777c2.866,0.853,5.122,3.863,5.362,7.157c0.159,2.17-0.457,6.223-6.367,8.971
		c-5.488,2.553-10.818,2.771-15.209,0.665C72.243,35.383,72.142,32.281,73.528,29.002z M98.104,42.533
		c-0.82,0-1.488-0.668-1.488-1.488s0.668-1.488,1.488-1.488s1.488,0.668,1.488,1.488S98.924,42.533,98.104,42.533z"/>
	<path fill="#31A6E7" d="M166.578,36.592c0.822,0,1.488,0.668,1.488,1.488s-0.666,1.488-1.488,1.488
		c-0.82,0-1.486-0.668-1.486-1.488S165.758,36.592,166.578,36.592z M170.68,18.028c0.748,0.686,1.301,1.267,1.49,1.526
		c0.24,0.331,0.703,0.411,1.035,0.17c0.33-0.241,0.404-0.691,0.162-1.021c-0.201-0.277-0.881-1.004-1.824-1.858
		c2.188-2.783,4.621-4.188,7.496-4.393c4.799-0.346,8.646,1.228,10.562,4.308c1.824,2.932,1.57,6.83-0.693,10.697
		c-1.557,2.66-6.771,8.995-9.352,11.722l-0.084,0.246c-2.168,2.295-7.928,8.576-18.02,8.576h-0.145
		c-3.24,0-7.547-0.122-12.357-4.519c-3.82-3.493-3.951-8.052-3.951-10.65v-3.798c0-5.328-4.143-9.654-9.457-9.654
		c-4.013,0-7.509,2.483-8.955,5.995c-1.496-3.529-5.231-5.996-9.186-5.996c-3.422,0-6.402,1.817-8.402,4.536c0,0,0-3.837,0-3.898
		c0-0.41-0.168-0.741-0.578-0.741c-0.408,0-0.729,0.332-0.729,0.741c0,3.559-1.523,7.78-3.673,10.914
		c-0.371-0.168-0.766-0.267-1.199-0.267c-1.639,0-2.964,1.333-2.964,2.971c0,1.639,1.336,2.971,2.975,2.971
		c1.638,0,2.973-1.332,2.973-2.971c0-0.66-0.1-1.265-0.465-1.759c1.076-1.624,1.661-3.267,2.661-5.107v2.283V43.19
		c-2,0.327-2.363,1.483-2.363,2.868c0,1.639,1.269,2.971,2.908,2.971c1.638,0,2.822-1.332,2.822-2.971
		c0-1.377-0.367-2.526-2.367-2.861V29.049c0-4.515,3.896-8.361,8.378-8.361c4.269,0,8.118,3.312,8.445,7.312h0.008
		c-0.006,0-0.015,9.678-0.02,15.065c-1.278,0.332-2.228,1.549-2.228,2.93c0,1.639,1.332,3.003,2.971,3.003
		c1.638,0,2.971-1.316,2.971-2.954c0-1.387-0.959-2.536-2.245-2.862l0.009-14.927c0.29-4.447,3.497-7.439,7.993-7.439
		c4.893,0,7.719,3.721,7.719,8.231v3.801c0,2.659,0.312,7.532,4.621,11.472c5.01,4.58,9.986,4.682,13.256,4.682
		c0.148,0,0.293,0,0.436,0h0.145c10.727,0,16.805-6.372,19.092-8.793l0.086-0.04c2.625-2.777,7.949-9.236,9.553-11.977
		c0.256-0.438,0.482-0.875,0.691-1.313l6.811-3.905l-5.502-3.304c-0.186-1.315-0.623-2.561-1.326-3.691
		c-2.217-3.563-6.561-5.39-11.928-5.005c-3.701,0.265-6.43,2.411-8.523,5.047c-1.92-1.568-4.402-3.02-6.375-3.02
		c-0.01,0-0.02,0-0.027,0c-1.441,0-3.258,0.486-4.07,2.364c-0.803,1.857,0.537,3.606,1.561,4.667
		c-0.959,0.398-2.152,1.069-2.482,2.199c-0.375,1.276-0.125,2.705,1.057,3.653c1.225,0.981,3.133,1.41,4.844,1.601
		c-0.701,2.965-0.936,6.057-0.439,8.505c-0.535,0.537-0.867,1.276-0.867,2.093c0,1.639,1.332,2.97,2.969,2.97
		c1.639,0,2.971-1.333,2.971-2.972s-1.332-2.971-2.971-2.971c-0.256,0-0.502,0.043-0.74,0.105c0.008-0.002,0.018-0.006,0.025-0.008
		c-0.324-2.118-0.123-4.866,0.549-7.62c0.373,0.016,0.729,0.025,1.029,0.025c0.695,0,1.16-0.029,1.227-0.035
		c0.408-0.027,0.717-0.381,0.688-0.789c-0.027-0.408-0.373-0.719-0.789-0.689c-0.41,0.027-1.031,0.042-1.75,0.021l-1.52-0.097
		c-1.602-0.16-3.318-0.53-4.297-1.315c-0.699-0.562-0.809-1.468-0.562-2.1c0.307-0.787,1.898-1.445,2.666-1.625l1.535-0.359
		l-1.256-0.953c-0.027-0.022-2.818-2.201-2.084-3.897c0.666-1.544,2.262-1.628,2.727-1.649c1.564,0.01,3.777,1.483,5.514,2.913
		L170.68,18.028z M102.835,35.121c-0.82,0-1.488-0.668-1.488-1.488c0-0.821,0.668-1.488,1.488-1.488s1.488,0.667,1.488,1.488
		C104.324,34.453,103.656,35.121,102.835,35.121z M109.97,46.059c0,0.821-0.668,1.488-1.488,1.488s-1.488-0.667-1.488-1.488
		c0-0.82,0.668-1.488,1.488-1.488S109.97,45.238,109.97,46.059z M128.042,46.06c0,0.821-0.668,1.488-1.488,1.488
		c-0.821,0-1.488-0.667-1.488-1.488s0.667-1.488,1.488-1.488C127.375,44.571,128.042,45.238,128.042,46.06z M192.283,21.455
		l2.477,1.488l-3.02,1.732C192.07,23.582,192.25,22.503,192.283,21.455z"/>
</g>
<g>
</g>
<g>
</g>
<g>
</g>
<g>
</g>
<g>
</g>
<g>
</g>
<g>
</g>
<g>
</g>
<g>
</g>
<g>
</g>
<g>
</g>
<g>
</g>
<g>
</g>
<g>
</g>
<g>
</g>
</svg>
