<?xml version="1.0" encoding="UTF-8" standalone="no"?>
<!DOCTYPE svg PUBLIC "-//W3C//DTD SVG 1.0//EN" "http://www.w3.org/TR/2001/PR-SVG-20010719/DTD/svg10.dtd">
<svg width="27cm" height="25cm" viewBox="144 -21 529 482" xmlns="http://www.w3.org/2000/svg" xmlns:xlink="http://www.w3.org/1999/xlink">
  <g id="Background">
    <g>
      <ellipse style="fill: #ff4f4f; fill-opacity: 1; stroke-opacity: 1; stroke-width: 2; stroke: #000000" cx="240" cy="110" rx="60" ry="30"/>
      <text font-size="12.8" style="fill: #000000; fill-opacity: 1; stroke: none;text-anchor:middle;font-family:sans-serif;font-style:normal;font-weight:normal" x="240" y="113.9">
        <tspan x="240" y="113.9">START</tspan>
      </text>
    </g>
    <g>
      <ellipse style="fill: #ffffff; fill-opacity: 1; stroke-opacity: 1; stroke-width: 2; stroke: #000000" cx="420" cy="210" rx="60" ry="30"/>
      <text font-size="12.8" style="fill: #000000; fill-opacity: 1; stroke: none;text-anchor:middle;font-family:sans-serif;font-style:normal;font-weight:normal" x="420" y="213.9">
        <tspan x="420" y="213.9">SLEEP</tspan>
      </text>
    </g>
    <g>
      <ellipse style="fill: #c569ff; fill-opacity: 1; stroke-opacity: 1; stroke-width: 2; stroke: #000000" cx="602.11" cy="310" rx="62.11" ry="30"/>
      <text font-size="12.8" style="fill: #000000; fill-opacity: 1; stroke: none;text-anchor:middle;font-family:sans-serif;font-style:normal;font-weight:normal" x="602.11" y="313.9">
        <tspan x="602.11" y="313.9">WIFI_TEST</tspan>
      </text>
    </g>
    <g>
      <ellipse style="fill: #ffff61; fill-opacity: 1; stroke-opacity: 1; stroke-width: 2; stroke: #000000" cx="600" cy="110" rx="60" ry="30"/>
      <text font-size="12.8" style="fill: #000000; fill-opacity: 1; stroke: none;text-anchor:middle;font-family:sans-serif;font-style:normal;font-weight:normal" x="600" y="113.9">
        <tspan x="600" y="113.9">CONFIG</tspan>
      </text>
    </g>
    <g>
      <ellipse style="fill: #ffc55b; fill-opacity: 1; stroke-opacity: 1; stroke-width: 2; stroke: #000000" cx="238.578" cy="310" rx="61.4218" ry="30"/>
      <text font-size="12.8" style="fill: #000000; fill-opacity: 1; stroke: none;text-anchor:middle;font-family:sans-serif;font-style:normal;font-weight:normal" x="238.578" y="313.9">
        <tspan x="238.578" y="313.9">GPS_TEST</tspan>
      </text>
    </g>
    <g>
      <path style="fill: none; stroke-opacity: 1; stroke-width: 1; stroke: #000000" d="M 377.72,178.736 A 67.5314,67.5314 0 0 0 283.1,131.764"/>
      <polygon style="fill: #000000; fill-opacity: 1; stroke-opacity: 1; stroke-width: 1; stroke: #000000" fill-rule="evenodd" points="378.892,186.094 373.062,176.554 378.256,178.621 383.025,175.705 "/>
    </g>
    <text font-size="12.8" style="fill: #000000; fill-opacity: 1; stroke: none;text-anchor:start;font-family:sans-serif;font-style:normal;font-weight:normal" x="530" y="140">
      <tspan x="530" y="140"></tspan>
    </text>
    <g>
      <path style="fill: none; stroke-opacity: 1; stroke-width: 1; stroke: #000000" d="M 461.041,187.221 A 88.5129,88.5129 0 0 0 555.431,140.609"/>
      <polygon style="fill: #000000; fill-opacity: 1; stroke-opacity: 1; stroke-width: 1; stroke: #000000" fill-rule="evenodd" points="558.572,133.83 559.527,144.97 555.803,140.8 550.233,141.277 "/>
    </g>
    <g>
      <path style="fill: none; stroke-opacity: 1; stroke-width: 1; stroke: #000000" d="M 558.959,132.779 A 88.5129,88.5129 0 0 0 464.569,179.391"/>
      <polygon style="fill: #000000; fill-opacity: 1; stroke-opacity: 1; stroke-width: 1; stroke: #000000" fill-rule="evenodd" points="461.428,186.17 460.473,175.03 464.197,179.2 469.767,178.723 "/>
    </g>
    <g>
      <path style="fill: none; stroke-opacity: 1; stroke-width: 1; stroke: #000000" d="M 461.3,232.655 A 83.6275,83.6275 0 0 1 557.037,279.015"/>
      <polygon style="fill: #000000; fill-opacity: 1; stroke-opacity: 1; stroke-width: 1; stroke: #000000" fill-rule="evenodd" points="559.855,285.93 551.901,278.073 557.439,278.83 561.368,274.853 "/>
    </g>
    <g>
      <path style="fill: none; stroke-opacity: 1; stroke-width: 1; stroke: #000000" d="M 559.75,287.201 A 70.975,70.975 0 0 1 463.056,241.053"/>
      <polygon style="fill: #000000; fill-opacity: 1; stroke-opacity: 1; stroke-width: 1; stroke: #000000" fill-rule="evenodd" points="461.438,233.776 467.87,242.92 462.554,241.192 457.982,244.408 "/>
    </g>
    <g>
      <path style="fill: none; stroke-opacity: 1; stroke-width: 1; stroke: #000000" d="M 378.706,232.654 A 89.3397,89.3397 0 0 0 283.786,279.266"/>
      <polygon style="fill: #000000; fill-opacity: 1; stroke-opacity: 1; stroke-width: 1; stroke: #000000" fill-rule="evenodd" points="280.602,286.026 279.722,274.88 283.418,279.074 288.991,278.634 "/>
    </g>
    <g>
      <path style="fill: none; stroke-opacity: 1; stroke-width: 1; stroke: #000000" d="M 280.209,287.074 A 89.3397,89.3397 0 0 0 375.233,240.51"/>
      <polygon style="fill: #000000; fill-opacity: 1; stroke-opacity: 1; stroke-width: 1; stroke: #000000" fill-rule="evenodd" points="378.418,233.751 379.295,244.897 375.6,240.702 370.028,241.14 "/>
    </g>
    <g>
      <ellipse style="fill: #74ff74; fill-opacity: 1; stroke-opacity: 1; stroke-width: 2; stroke: #000000" cx="240" cy="430" rx="60" ry="30"/>
      <text font-size="12.8" style="fill: #000000; fill-opacity: 1; stroke: none;text-anchor:middle;font-family:sans-serif;font-style:normal;font-weight:normal" x="240" y="433.9">
        <tspan x="240" y="433.9">COLLECT</tspan>
      </text>
    </g>
    <g>
      <path style="fill: none; stroke-opacity: 1; stroke-width: 1; stroke: #000000" d="M 238.929,341.011 A 31.3873,31.3873 0 0 0 232.319,394.857"/>
      <polygon style="fill: #000000; fill-opacity: 1; stroke-opacity: 1; stroke-width: 1; stroke: #000000" fill-rule="evenodd" points="238.578,398.574 227.436,399.492 231.617,395.782 231.158,390.211 "/>
    </g>
    <g>
      <path style="fill: none; stroke-opacity: 1; stroke-width: 1; stroke: #000000" d="M 239.65,398.99 A 30.7003,30.7003 0 0 0 246.468,344.728"/>
      <polygon style="fill: #000000; fill-opacity: 1; stroke-opacity: 1; stroke-width: 1; stroke: #000000" fill-rule="evenodd" points="240.023,341.364 251.094,339.8 247.135,343.747 247.917,349.282 "/>
    </g>
    <g>
      <ellipse style="fill: #8888ff; fill-opacity: 1; stroke-opacity: 1; stroke-width: 2; stroke: #000000" cx="600" cy="430" rx="60" ry="30"/>
      <text font-size="12.8" style="fill: #000000; fill-opacity: 1; stroke: none;text-anchor:middle;font-family:sans-serif;font-style:normal;font-weight:normal" x="600" y="433.9">
        <tspan x="600" y="433.9">UPLOAD</tspan>
      </text>
    </g>
    <g>
      <path style="fill: none; stroke-opacity: 1; stroke-width: 1; stroke: #000000" d="M 601.581,341.011 A 31.7607,31.7607 0 0 1 607.778,394.709"/>
      <polygon style="fill: #000000; fill-opacity: 1; stroke-opacity: 1; stroke-width: 1; stroke: #000000" fill-rule="evenodd" points="601.59,398.551 608.829,390.03 608.489,395.61 612.75,399.23 "/>
    </g>
    <g>
      <path style="fill: none; stroke-opacity: 1; stroke-width: 1; stroke: #000000" d="M 600.527,398.991 A 30.4429,30.4429 0 0 1 593.937,344.499"/>
      <polygon style="fill: #000000; fill-opacity: 1; stroke-opacity: 1; stroke-width: 1; stroke: #000000" fill-rule="evenodd" points="600.476,341.331 592.339,348.998 593.294,343.49 589.46,339.421 "/>
    </g>
    <text font-size="12.8" style="fill: #000000; fill-opacity: 1; stroke: none;text-anchor:start;font-family:sans-serif;font-style:normal;font-weight:normal" x="300" y="220">
      <tspan x="300" y="220"></tspan>
    </text>
    <g>
      <rect style="fill: #ffffff; fill-opacity: 1; stroke-opacity: 1; stroke-width: 0.2; stroke-dasharray: 4; stroke: #000000" x="259.9" y="220" width="75.9" height="20" rx="0" ry="0"/>
      <text font-size="6.77333" style="fill: #000000; fill-opacity: 1; stroke: none;text-anchor:middle;font-family:sans-serif;font-style:normal;font-weight:normal" x="297.85" y="232.017">
        <tspan x="297.85" y="232.017">accelerometer.moving</tspan>
      </text>
    </g>
    <g>
      <rect style="fill: #ffffff; fill-opacity: 1; stroke-opacity: 1; stroke-width: 0.2; stroke-dasharray: 4; stroke: #000000" x="319.975" y="280" width="92.5" height="20" rx="0" ry="0"/>
      <text font-size="6.77333" style="fill: #000000; fill-opacity: 1; stroke: none;text-anchor:middle;font-family:sans-serif;font-style:normal;font-weight:normal" x="366.225" y="292.017">
        <tspan x="366.225" y="292.017">NOT accelerometer.moving</tspan>
      </text>
    </g>
    <g>
      <rect style="fill: #ffffff; fill-opacity: 1; stroke-opacity: 1; stroke-width: 0.2; stroke-dasharray: 4; stroke: #000000" x="499.975" y="217.2" width="92.5" height="25.6" rx="0" ry="0"/>
      <text font-size="6.77333" style="fill: #000000; fill-opacity: 1; stroke: none;text-anchor:middle;font-family:sans-serif;font-style:normal;font-weight:normal" x="546.225" y="223.55">
        <tspan x="546.225" y="223.55">NOT accelerometer.moving</tspan>
        <tspan x="546.225" y="232.017">AND NOT buffer.empty</tspan>
        <tspan x="546.225" y="240.483">AND NOT WIFIFAIL</tspan>
      </text>
    </g>
    <g>
      <rect style="fill: #ffffff; fill-opacity: 1; stroke-opacity: 1; stroke-width: 0.2; stroke-dasharray: 4; stroke: #000000" x="500" y="180" width="80" height="20" rx="0" ry="0"/>
      <text font-size="6.77333" style="fill: #000000; fill-opacity: 1; stroke: none;text-anchor:middle;font-family:sans-serif;font-style:normal;font-weight:normal" x="540" y="192.017">
        <tspan x="540" y="192.017">accelerometer.shaking</tspan>
      </text>
    </g>
    <g>
      <rect style="fill: #ffffff; fill-opacity: 1; stroke-opacity: 1; stroke-width: 0.2; stroke-dasharray: 4; stroke: #000000" x="457.924" y="120" width="71.55" height="20" rx="0" ry="0"/>
      <text font-size="6.77333" style="fill: #000000; fill-opacity: 1; stroke: none;text-anchor:middle;font-family:sans-serif;font-style:normal;font-weight:normal" x="493.699" y="127.783">
        <tspan x="493.699" y="127.783">finished OR canceled</tspan>
        <tspan x="493.699" y="136.25">OR timeout</tspan>
      </text>
    </g>
    <g>
      <rect style="fill: #ffffff; fill-opacity: 1; stroke-opacity: 1; stroke-width: 0.2; stroke-dasharray: 4; stroke: #000000" x="620" y="340" width="22.4" height="20" rx="0" ry="0"/>
      <text font-size="6.77333" style="fill: #000000; fill-opacity: 1; stroke: none;text-anchor:middle;font-family:sans-serif;font-style:normal;font-weight:normal" x="631.2" y="352.017">
        <tspan x="631.2" y="352.017">wifi.fix</tspan>
      </text>
    </g>
    <g>
      <rect style="fill: #ffffff; fill-opacity: 1; stroke-opacity: 1; stroke-width: 0.2; stroke-dasharray: 4; stroke: #000000" x="459.9" y="300" width="75.9" height="25.6" rx="0" ry="0"/>
      <text font-size="6.77333" style="fill: #000000; fill-opacity: 1; stroke: none;text-anchor:middle;font-family:sans-serif;font-style:normal;font-weight:normal" x="497.85" y="306.35">
        <tspan x="497.85" y="306.35">accelerometer.moving</tspan>
        <tspan x="497.85" y="314.817">OR buffer.empty</tspan>
        <tspan x="497.85" y="323.283">OR wifi.timeout</tspan>
      </text>
    </g>
    <g>
      <rect style="fill: #ffffff; fill-opacity: 1; stroke-opacity: 1; stroke-width: 0.2; stroke-dasharray: 4; stroke: #000000" x="259.975" y="380" width="92.5" height="20" rx="0" ry="0"/>
      <text font-size="6.77333" style="fill: #000000; fill-opacity: 1; stroke: none;text-anchor:middle;font-family:sans-serif;font-style:normal;font-weight:normal" x="306.225" y="387.783">
        <tspan x="306.225" y="387.783">NOT accelerometer.moving</tspan>
        <tspan x="306.225" y="396.25">or NOT gps.ready</tspan>
      </text>
    </g>
    <g>
      <rect style="fill: #ffffff; fill-opacity: 1; stroke-opacity: 1; stroke-width: 0.2; stroke-dasharray: 4; stroke: #000000" x="144.2" y="340" width="75.9" height="20" rx="0" ry="0"/>
      <text font-size="6.77333" style="fill: #000000; fill-opacity: 1; stroke: none;text-anchor:middle;font-family:sans-serif;font-style:normal;font-weight:normal" x="182.15" y="347.783">
        <tspan x="182.15" y="347.783">accelerometer.moving</tspan>
        <tspan x="182.15" y="356.25">AND gps.ready</tspan>
      </text>
    </g>
    <g>
      <rect style="fill: #ffffff; fill-opacity: 1; stroke-opacity: 1; stroke-width: 0.2; stroke-dasharray: 4; stroke: #000000" x="340" y="120" width="26.95" height="20" rx="0" ry="0"/>
      <text font-size="6.77333" style="fill: #000000; fill-opacity: 1; stroke: none;text-anchor:middle;font-family:sans-serif;font-style:normal;font-weight:normal" x="353.475" y="132.017">
        <tspan x="353.475" y="132.017">finished</tspan>
      </text>
    </g>
    <g>
      <rect style="fill: #ffffff; fill-opacity: 1; stroke-opacity: 1; stroke-width: 0.2; stroke-dasharray: 4; stroke: #000000" x="553.05" y="380" width="26.95" height="20" rx="0" ry="0"/>
      <text font-size="6.77333" style="fill: #000000; fill-opacity: 1; stroke: none;text-anchor:middle;font-family:sans-serif;font-style:normal;font-weight:normal" x="566.525" y="392.017">
        <tspan x="566.525" y="392.017">finished</tspan>
      </text>
    </g>
    <text font-size="12.7998" style="fill: #000000; fill-opacity: 1; stroke: none;text-anchor:start;font-family:sans-serif;font-style:normal;font-weight:normal" x="600" y="110">
      <tspan x="600" y="110"></tspan>
    </text>
    <text font-size="6.77333" style="fill: #000000; fill-opacity: 1; stroke: none;text-anchor:start;font-family:sans-serif;font-style:italic;font-weight:normal" x="575.366" y="124.43">
      <tspan x="575.366" y="124.43">CLEAR WIFIFAIL</tspan>
    </text>
    <text font-size="12.7998" style="fill: #000000; fill-opacity: 1; stroke: none;text-anchor:start;font-family:sans-serif;font-style:normal;font-weight:normal" x="620.556" y="153.863">
      <tspan x="620.556" y="153.863"></tspan>
    </text>
    <text font-size="6.77333" style="fill: #000000; fill-opacity: 1; stroke: none;text-anchor:start;font-family:sans-serif;font-style:italic;font-weight:normal" x="562.999" y="323.866">
      <tspan x="562.999" y="323.866">on timeout set WIFIFAIL</tspan>
    </text>
    <text font-size="12.7998" style="fill: #000000; fill-opacity: 1; stroke: none;text-anchor:start;font-family:sans-serif;font-style:normal;font-weight:normal" x="546.225" y="230">
      <tspan x="546.225" y="230"></tspan>
    </text>
    <text font-size="12.7998" style="fill: #000000; fill-opacity: 1; stroke: none;text-anchor:start;font-family:sans-serif;font-style:normal;font-weight:normal" x="427.013" y="381.893">
      <tspan x="427.013" y="381.893"></tspan>
    </text>
    <g>
      <ellipse style="fill: #ffff61; fill-opacity: 1; stroke-opacity: 1; stroke-width: 2; stroke: #000000" cx="600.363" cy="10.8934" rx="60" ry="30"/>
      <text font-size="12.8" style="fill: #000000; fill-opacity: 1; stroke: none;text-anchor:middle;font-family:sans-serif;font-style:normal;font-weight:normal" x="600.363" y="14.7934">
        <tspan x="600.363" y="14.7934">DEMO</tspan>
      </text>
    </g>
    <text font-size="12.7998" style="fill: #000000; fill-opacity: 1; stroke: none;text-anchor:start;font-family:sans-serif;font-style:normal;font-weight:normal" x="600.363" y="10.8934">
      <tspan x="600.363" y="10.8934"></tspan>
    </text>
    <text font-size="12.7998" style="fill: #000000; fill-opacity: 1; stroke: none;text-anchor:start;font-family:sans-serif;font-style:normal;font-weight:normal" x="620.919" y="54.7562">
      <tspan x="620.919" y="54.7562"></tspan>
    </text>
    <text font-size="12.7998" style="fill: #000000; fill-opacity: 1; stroke: none;text-anchor:start;font-family:sans-serif;font-style:normal;font-weight:normal" x="600.363" y="10.8934">
      <tspan x="600.363" y="10.8934"></tspan>
    </text>
    <g>
      <path style="fill: none; stroke-opacity: 1; stroke-width: 1; stroke: #000000" d="M 600.64,78.4785 A 22.1894,22.1894 0 0 0 606.297,47.6698"/>
      <polygon style="fill: #000000; fill-opacity: 1; stroke-opacity: 1; stroke-width: 1; stroke: #000000" fill-rule="evenodd" points="601.431,42.5307 612.51,44.0322 607.628,46.7553 606.878,52.2949 "/>
    </g>
    <g>
      <path style="fill: none; stroke-opacity: 1; stroke-width: 1; stroke: #000000" d="M 600.535,42.3202 A 22.6312,22.6312 0 0 0 594.811,72.9419"/>
      <polygon style="fill: #000000; fill-opacity: 1; stroke-opacity: 1; stroke-width: 1; stroke: #000000" fill-rule="evenodd" points="599.528,78.2378 588.507,76.3572 593.48,73.8031 594.42,68.2926 "/>
    </g>
    <g>
      <rect style="fill: #ffffff; fill-opacity: 1; stroke-opacity: 1; stroke-width: 0.2; stroke-dasharray: 4; stroke: #000000" x="620.875" y="51.265" width="51.3078" height="20" rx="0" ry="0"/>
      <text font-size="6.77333" style="fill: #000000; fill-opacity: 1; stroke: none;text-anchor:middle;font-family:sans-serif;font-style:normal;font-weight:normal" x="646.529" y="59.0483">
        <tspan x="646.529" y="59.0483">DEMO START</tspan>
        <tspan x="646.529" y="67.515">selected</tspan>
      </text>
    </g>
    <text font-size="12.7998" style="fill: #000000; fill-opacity: 1; stroke: none;text-anchor:start;font-family:sans-serif;font-style:normal;font-weight:normal" x="646.529" y="61.265">
      <tspan x="646.529" y="61.265"></tspan>
    </text>
    <g>
      <rect style="fill: #ffffff; fill-opacity: 1; stroke-opacity: 1; stroke-width: 0.2; stroke-dasharray: 4; stroke: #000000" x="538.911" y="52.0633" width="41.6492" height="20" rx="0" ry="0"/>
      <text font-size="6.77333" style="fill: #000000; fill-opacity: 1; stroke: none;text-anchor:middle;font-family:sans-serif;font-style:normal;font-weight:normal" x="559.736" y="59.8466">
        <tspan x="559.736" y="59.8466">DEMO END</tspan>
        <tspan x="559.736" y="68.3133">selected</tspan>
      </text>
    </g>
    <text font-size="12.7998" style="fill: #000000; fill-opacity: 1; stroke: none;text-anchor:start;font-family:sans-serif;font-style:normal;font-weight:normal" x="646.529" y="61.265">
      <tspan x="646.529" y="61.265"></tspan>
    </text>
    <text font-size="6.77333" style="fill: #000000; fill-opacity: 1; stroke: none;text-anchor:start;font-family:sans-serif;font-style:italic;font-weight:normal" x="215.066" y="325.389">
      <tspan x="215.066" y="325.389">CLEAR WIFIFAIL</tspan>
    </text>
  </g>
</svg>
